<svg id="Layer_1" data-name="Layer 1" xmlns="http://www.w3.org/2000/svg" xmlns:xlink="http://www.w3.org/1999/xlink" viewBox="0 0 383.13 382.77"><defs><style>.cls-1{fill:#fefefe;}.cls-2{fill:#fdfdfe;}.cls-3{fill:#36a5dc;}.cls-4{fill:#fdfefe;}.cls-5{fill:url(#linear-gradient);}.cls-6{fill:url(#linear-gradient-2);}.cls-7{fill:#559cd3;}.cls-8{fill:#bb7fb8;}.cls-9{fill:#a187bf;}.cls-10{fill:#cc7ab4;}.cls-11{fill:url(#linear-gradient-3);}.cls-12{fill:#40a2d9;}.cls-13{fill:#7c91c9;}.cls-14{fill:#6a96ce;}.cls-15{fill:#8d8cc5;}.cls-16{fill:#8f8cc4;}.cls-17{fill:#7194cc;}.cls-18{fill:#b681ba;}.cls-19{fill:#dc77b0;}.cls-20{fill:#fefdfe;}.cls-21{fill:#ef71ab;}.cls-22{fill:#de76af;}.cls-23{fill:#b880b9;}.cls-24{fill:#848fc7;}.cls-25{fill:#6697cf;}.cls-26{fill:#9889c2;}.cls-27{fill:#ac84bd;}.cls-28{fill:#b282bb;}.cls-29{fill:#898ec6;}.cls-30{fill:#5e9ad1;}</style><linearGradient id="linear-gradient" x1="-14.15" y1="31.06" x2="427.04" y2="33.36" gradientUnits="userSpaceOnUse"><stop offset="0" stop-color="#ef71aa"/><stop offset="1" stop-color="#22aae1"/></linearGradient><linearGradient id="linear-gradient-2" x1="-14.15" y1="29.98" x2="427.04" y2="32.28" xlink:href="#linear-gradient"/><linearGradient id="linear-gradient-3" x1="0.35" y1="226.21" x2="383.47" y2="226.21" xlink:href="#linear-gradient"/></defs><path class="cls-1" d="M307.79,254.85c.82,1.53,1.58,3.09,2.45,4.59,3.44,5.92,3.08,7.17-3.07,10.32a9,9,0,0,1-4.4,3.7q-11.13,5-22.39,9.79c-5.12,1.32-6.94,4.9-7.34,9.89-.83,10.28-1.8,20.54-3,30.78-.73,6.07-3.56,8.26-9.56,7.21-2.57-.45-5.08-1.2-7.64-1.68-8.69-2.06-17.47-3.76-26.19-5.7-2.66-.59-4.53.36-6.16,2.38-1,1.25-2.28,2.28-3.21,3.62-4.75,4.35-8.5,9.62-12.84,14.34-2.5,2.72-5,5.46-7.44,8.29-3.21,3.76-7.41,3.19-10.54-1-7.29-6.8-13.1-15-20.36-21.8-1.52-1.43-1.68-4-4-4.77-1.62-1.64-3.52-1.36-5.52-.94-8,1.65-15.8,3.8-23.83,5.08-3.5.88-7,1.84-10.55,2.38-4.33.67-7.63-1.58-8.19-6-1.31-10.22-2.38-20.49-3.1-30.76-.39-5.65-2-9.91-7.85-11.57-8.48-3.19-16.58-7.28-24.84-11a12,12,0,0,0-2.43-.88c-6.13-2.64-7.26-5.78-4.24-11.73a50.54,50.54,0,0,1,3.07-5.09c2.84-3.16,3.84-7.37,6.22-10.84,2.8-4.08,4.93-8.6,7.61-12.77a6.46,6.46,0,0,0,.17-7.58c-4.81-8.07-9.47-16.24-14.17-24.39a47.39,47.39,0,0,1-3.63-6c-2.14-4-.81-8,3.34-9.79,1.91-.85,3.77-1.82,5.75-2.54q13.64-6,27.25-12a5.25,5.25,0,0,0,3-4.38c1-6.38,1.34-12.83,2.08-19.23.64-5.55,1-11.13,1.65-16.67a6.36,6.36,0,0,1,1.52-3.72c2.73-2.67,5.91-2.6,9.38-1.82,7.77,1.73,15.57,3.37,23.31,5.19,3.27.6,6.51,1.37,9.77,2a4.66,4.66,0,0,0,4.94-1.67c4.45-5.44,9.41-10.43,13.88-15.86A114.11,114.11,0,0,1,187,101.08c3.38-3,6.43-3,9.82,0,3.58,3.12,5.8,7.39,9.26,10.58,4.87,4.81,9.34,10,13.75,15.22,2.19,2.58,4.42,3.84,7.78,2.68,3.18-1.1,6.64-1,9.82-2.18,7.73-2,15.56-3.51,23.37-5.11,5.3-1.08,7.72.76,8.52,6.06.25,1.63,1.12,3,1.27,4.66.62,9.42,1.93,18.77,2.51,28.2.27,4.25,2.08,6.91,6.35,8.54,6.25,2.39,12.31,5.33,18.47,8a11.33,11.33,0,0,1,5.49,4.27c2,.95,4.06,1.83,6,2.87,3,1.58,3.69,3.73,2.15,6.77-1.17,2.31-2.48,4.55-3.72,6.82-1.5,7.8-6.22,14.06-10.35,20.47-3.56,5.5-4.26,10.13,0,15.47,2.61,3.3,4.33,7.26,6.52,10.88C305.79,248.19,307.4,251.29,307.79,254.85Z"/><path class="cls-2" d="M307.16,345.25c-5.1-.05-10.21-.07-15.31-.13-3.92-.05-6-1.72-5.79-4.71.27-3.55,2.68-4.31,5.78-4.3,6.85,0,13.7-.05,20.55-.09l42.93.12a23.51,23.51,0,0,1,3.36.05A4.44,4.44,0,0,1,359,345a16.45,16.45,0,0,1-3.72.16Z"/><path class="cls-3" d="M307.79,254.85q-7.87-13.26-15.77-26.52a2.69,2.69,0,0,1-.11-3.1q8-13.39,16-26.83c0,15.75.08,31.49,0,47.24C307.83,248.71,309.07,251.79,307.79,254.85Z"/><path class="cls-4" d="M324.35,322.8q-16.25.06-32.49.13c-3,0-5.56-.65-5.8-4.28-.2-3,1.82-4.63,5.79-4.7,5.1-.09,10.2-.14,15.3-.21,4.82.07,9.64.18,14.47.19,2.59,0,4.74.75,5.53,3.4S326.43,321.56,324.35,322.8Z"/><path class="cls-5" d="M179.33,13.4h0c-2.48-3.85-5-7.68-7.41-11.55A3.27,3.27,0,0,0,168.8.28Q153.38.38,138,.45a4.15,4.15,0,0,1-1.08.14A6.9,6.9,0,0,1,138,.45H79.83c-20.2,0-40.39-.29-60.58,0C8.45.55.45,9.3.4,20.17.34,33.13.47,46.1.32,59.06c0,2.92.81,3.88,3.77,3.83,10.35-.15,20.7,0,31-.07,11.22,0,22.43-.14,33.64-.22h0c1.49.08,3,.23,4.46.23q29.85,0,59.71,0c3,0,6.06-.09,9.09-.16,1,0,2.07,0,3.11-.07h.1q32.35.13,64.73.25c.68,0,2,.41,1.48-1.2Q195.79,37.25,179.33,13.4ZM90.65,46.47c-1.29.4-2.91.39-3.78,1.6-1.32-1.28-3.36-1.16-5-1.79C75.37,43.74,71.11,38,71.17,31.52s4.14-11.95,10.5-14.46a26.06,26.06,0,0,0,4.16-1.49c1,.7,2.34.51,3.48.75,7.22,1.56,12.25,7.07,12.53,13.81C102.19,38.35,98.18,44.14,90.65,46.47Zm57.6-10.94c-1.69,6.11-5.87,9.63-11.83,11.28a7.18,7.18,0,0,0-3.22,1.31c-.7-1-2.06-1.11-3.15-1.45a16.8,16.8,0,0,1-5.45-2.37c-5.37-4.13-7.6-9.6-6.1-16.15S124.44,17.69,131,16.27c1.07-.23,2.33-.1,3.2-.75,1.48.92,3.24,1.15,4.83,1.79A15.15,15.15,0,0,1,148.25,35.53Z"/><path class="cls-6" d="M383.47,15.91V63.05c-1.74,0-3.48-.12-5.22-.12q-75.06-.06-150.13,0c-3.73,0-5.81-1.19-7.76-4.26-7.07-11.12-14.42-22.07-21.66-33.08Q191,14.15,183.23,2.72c-1.45-2.13-.4-2.47,1.56-2.46q33,.09,66.1.13H295.8Q329.64.32,363.48.27c.73,0,1.52-.11,2,.62,6.77-.19,13.39,4.43,16.39,11.34C382.44,13.46,382.4,14.93,383.47,15.91Z"/><path class="cls-7" d="M242.85,137.3c4.61-1.06,9.23-2.06,13.82-3.19,2.09-.51,3.15-.26,3.36,2.28.91,10.78,2.44,21.54,2.89,32.34.25,6.14,4.57,7.29,8.49,9.43.95,2.69.11,5.43.12,8.14,0,28.12,0,56.23.07,84.35,0,1.78,0,3.48-1.08,5-5.95,1.76-7.47,6-7.75,11.86-.46,9.8-1.86,19.56-2.75,29.35-.2,2.18-.69,3.12-3.18,2.47-5.88-1.53-11.84-2.8-17.77-4.17a4,4,0,0,1-1.64-3.19c-.11-6.92-.64-13.85.36-20.74,6.32-13.31,5.47-28.07,8.44-42.06,1.6-7.53,2.14-15.25,3.64-22.82a6.92,6.92,0,0,1,3.52-4.92c6.39-3.86,9.09-9.71,7.77-16.3-1.28-6.41-6.17-10.84-13.48-12.21-1.9-.35-4.09,0-5.24-2.21-.78-1.64-.65-3.41-.66-5.13q-.09-21.25,0-42.51C241.78,141.09,241.65,139.06,242.85,137.3Z"/><path class="cls-8" d="M133.77,317.54c-2.39.61-4.79,1.16-7.16,1.85-2.12.62-2.57-.49-2.73-2.26-1-10.73-2-21.45-3.06-32.17-.26-2.74-.38-5.5-3-7.27a8.46,8.46,0,0,1-1.77-5.57q-.08-45.6,0-91.19a7.65,7.65,0,0,1,1.66-5.21c2.44-1.51,2.73-4,3-6.51q1.6-16.15,3.1-32.32c.18-1.91.23-3.5,3-2.84,6.51,1.58,13.06,3,19.59,4.51.51,12.78.15,25.57.19,38.35,0,5,.45,9.93-.44,14.85-1.26,2.58-3.46,1.89-5.53,1.55-9-1.46-16.41,3.61-18.14,12.47-1.14,5.81,2.07,12.16,7.9,15.62,1.7,1,3.69,1.75,3.57,4.28-.11,28.38,0,56.76,0,85.13C133.88,313.06,133.87,315.3,133.77,317.54Z"/><path class="cls-9" d="M144.76,192.6q0-24.48,0-49c0-1.84-.33-3.82,1.57-5.08,4,.8,8.09,1.29,12,2.46,4.42,1.34,7.7.41,10.33-3.35a25.05,25.05,0,0,1,2.84-2.9c2.18-.21,2.35,1.41,2.56,2.9a39.58,39.58,0,0,1,.19,6.35c-.28,10.46.08,20.91-.45,31.39-.46,9,.5,18.05.46,27.09a71.53,71.53,0,0,1-.35,9.71c-.15,1.13-.31,2.25.62,3.15,1.63,5.2,4.4,10,5.85,15.25,1.31,4.72-.46,8.6-4.1,11.62s-7.92,2.71-12,1.17-6-5-6.24-9.34a17.05,17.05,0,0,1,1-7.36c1.32-3.23.59-6-2.18-7.93-3.64-2.54-5-5.51-4.38-10.13s-1.74-8.94-5.43-12.17C145.85,195.44,144.2,194.66,144.76,192.6Z"/><path class="cls-10" d="M117.75,175.72q.06,51,.1,102c-11-4.75-21.91-9.55-32.91-14.21-2.33-1-2.17-2-1-3.9,5.62-9.42,11-19,16.7-28.33,2-3.32,1.87-6.06-.11-9.33-5.64-9.26-11-18.7-16.52-28-1.22-2-1.25-3.06,1.22-4.1C96.09,185.22,106.91,180.44,117.75,175.72Z"/><path class="cls-11" d="M378.76,70.29c-23.9-.1-47.81-.14-71.71,0-1.47,0-3,0-4.17,1.24a3.23,3.23,0,0,0-.22.41c-11-.37-22-.25-32.92,0-11.23-.38-22.45-.26-33.67,0-10.23-.36-20.45-.27-30.68,0h0c-9.47-.34-18.95-.27-28.43,0H80.45q-38.69-.09-77.37-.2C-.23,71.77.4,74,.4,75.86q0,143,0,286c0,10.85,8,19.54,18.84,19.75,15.45.28,30.9,0,46.35,0H241.91l59.06,0h6c.86.45,2.19.55,4.27.55q27.28,0,54.56,0a16.22,16.22,0,0,0,12.08-3.88c4-3.26,4.65-7.71,5.56-12.2V72C382.27,70.44,380.52,70.3,378.76,70.29ZM321.38,315.66c1.53.18,3,.82,3.24,2.56.25,1.55-.91,2.13-2.14,2.55l-1.19.17c-.59,0-1.2,0-1.78,0-8.2-.15-16.4,0-24.61-.11-2.2,0-5.65.72-5.66-2.51,0-3.43,3.53-2.66,5.86-2.79,2.73-.16,5.47,0,8.2-.13,1.25-.07,2.61,0,3.47-1.06,1,1,2.47,1,3.89,1.06C314.23,315.61,317.82,315.26,321.38,315.66ZM92.57,343.22c-1.34.36-2.89.27-3.78,1.49-3.58-2.73-7.74-1-11.65-1a1.89,1.89,0,0,0-1.52.83c-1.74-1.62-4-1.15-6.06-1.17-12.8-.1-25.61,0-38.42-.06a13.14,13.14,0,0,1-4.79-.48,2.43,2.43,0,0,1-1.86-2.1c-.07-1.34.85-2,2-2.38a14.1,14.1,0,0,1,4.44-.39c13.18,0,26.36.05,39.54-.06,2,0,4.22.47,5.9-1.11.93,1.32,2.59,1,4,1.08,4,.21,7.91-.13,11.86.22,1.43.12,2.73.74,2.86,2.39S94,342.84,92.57,343.22ZM163.74,324h0c-1.06-1.81-2.19-3.22-4.72-2.62-8.72,2.05-17.47,4-26.2,5.92h0c-3.28.68-6.55,1.39-9.83,2-5.1,1-6.91-.4-7.4-5.47-1.19-12.11-2.45-24.22-3.67-36.33-.12-1.22,0-2.53-1.46-3.13-2.51-1-4.79-2.61-7.59-2.83-8.43-4.6-17.33-8.18-26.18-11.86-6.17-3.17-6.49-4.33-3-10.49.86-1.49,1.63-3,2.45-4.53,1.21-18.77,1.57-37.54-.2-56.3-1.24-2.27-2.49-4.54-3.71-6.83-1.59-3-.79-5.25,2.15-6.76,2-1,4-1.92,6-2.88,9.7-4.19,19.4-8.4,29.12-12.55a3.44,3.44,0,0,0,2.39-3.31c.36-5.09.82-10.18,1.49-15.23,1.12-8.5,1.15-17.13,3-25.54,1.94-1.75,4.12-1.87,6.6-1.32,8.48,1.91,17,3.67,25.48,5.48,3.74.84,7.48,1.65,11.21,2.53a2.74,2.74,0,0,0,2.93-1.1q7.58-8.72,15.17-17.39l9.48-10.33c3.55-3.86,5.69-3.89,9.19-.1q4.41,4.75,8.8,9.54h0c5.36,6.14,10.74,12.26,16.06,18.43a3,3,0,0,0,3.33.88l12.2-2.88h0c1.1-.18,2.21-.31,3.3-.54,7-1.52,14.05-3.08,21.09-4.57,4.54-1,6.57.59,7,5.2a11.67,11.67,0,0,0,.7,4.38h0c1,11,2.08,22,3,33a2.9,2.9,0,0,0,2.09,2.68q14.13,6.08,28.25,12.2c.36,2.44,2.51,3.21,4.42,4.17,3.88,2,4.19,3.08,2.28,6.89-1.12,2.24-3.31,4.13-2.62,7a11.77,11.77,0,0,1,.14,4.35c-.74,15.09-.51,30.2-.15,45.3,0,1.44,1.12,2.79.41,4.33-1.12,2.77.82,4.67,2,6.8,1.95,3.71,1.86,4.55-1.18,7.21a4.24,4.24,0,0,0-1.51,2.73l-25.81,11.34a35,35,0,0,1-3.81,1.44c-3.32.88-4.52,2.85-4.79,6.36-.89,11.55-2.24,23-3.36,34.58-.48,4.92-2.25,6.32-7.13,5.43-2.81-.52-5.62-1.07-8.42-1.6h0c-7-1.62-14-3.26-21-4.86-9.5-2.17-9.5-2.15-15.67,5.44a1.5,1.5,0,0,0-.16.34h0q-9.57,10.61-19.14,21.22c-3.71,4.13-5.32,4.2-9.5.43Zm128.18,19.15c-1.42-.14-2.81-.69-2.91-2.36-.11-1.92,1.38-2.45,2.93-2.72a20.77,20.77,0,0,1,3.35-.14c4.34,0,8.69.09,13-.09a6.64,6.64,0,0,0,2.93-.43,8.7,8.7,0,0,0,.9.32c13.32.45,26.64.08,40,.21a21.12,21.12,0,0,1,4.83.26c1.27.31,2.45.87,2.42,2.41s-1.2,2.07-2.46,2.4a18,18,0,0,1-4.46.29c-13.44,0-26.89-.06-40.33.06-1.83,0-3.88-.35-5.33,1.16-1-1.36-2.63-1.06-4.08-1.14C299.12,343.19,295.51,343.53,291.92,343.17Z"/><path class="cls-12" d="M270.52,275.64a44.4,44.4,0,0,1-.79-10q0-40.17,0-80.35c0-2.5-.1-5,1.67-7.1,8.88,3.8,17.71,7.73,26.68,11.32,3.14,1.26,3.08,2.43,1.5,5-5.62,9.25-10.93,18.7-16.53,28a7.17,7.17,0,0,0-.05,8.3c5.72,9.49,11.16,19.15,16.89,28.64,1.42,2.35,1.09,3.21-1.39,4.24C289.13,267.54,279.84,271.63,270.52,275.64Z"/><path class="cls-13" d="M197,117.73c6.48,7.09,13,14.15,19.42,21.29,1.48,1.64,3,2.86,5.36,2.8-2,9-.95,18.07-1.09,27.11-.28,17.82.15,35.65-.23,53.48-.12,5.42-.41,11,1,16.34,1,3.07-.88,4.67-3.3,5.16-4.05.84-8,1-11.49-2.37s-4.32-7.12-3.27-11.54a22.54,22.54,0,0,1,2.9-7.24,7.87,7.87,0,0,0,.66-7.46c-2.21-6.08-3.83-12.34-5.55-18.58a7,7,0,0,1,1.45-6.87c6.58-8.1,4.33-18.66-4.9-23.64-1.55-.84-3.21-1.45-3.46-3.53a11.4,11.4,0,0,1-.58-4.05c-.07-11.84-.14-23.67.05-35.5C194,120.93,193.49,118.1,197,117.73Z"/><path class="cls-14" d="M221.29,239.71c-2.24-.75-2.41-2.63-2.41-4.55q0-44.4,0-88.79c0-2.32.82-3.78,3-4.55l21.06-4.52c.9,1.74.7,3.62.7,5.48q0,24.19,0,48.39c.15,2.07-1.67,2.25-2.9,2.91-7.26,3.89-9.9,8.74-9.13,17.08.21,2.3-.34,4.17-2.36,5.5-.93.61-1.62,1.56-2.55,2.18-2.89,1.9-3.24,4.44-2.2,7.51.91,2.72,1.73,5.54,1.2,8.43C225.2,237.19,224.79,239.88,221.29,239.71Z"/><path class="cls-15" d="M206,325.66c-3.75,5.27-8.49,9.69-12.61,14.65-1.41,1.69-2.27.66-3.23-.44l-16.95-19.34a14.81,14.81,0,0,1-1.77-7.53c0-5.73,0-11.45,0-17.18a10.49,10.49,0,0,1,1.22-5.76,4.25,4.25,0,0,1,3.4-1.21c8.68-.23,17.36-.26,26,0a4.27,4.27,0,0,1,2.79.86c1.58,1.86,1.54,4.13,1.52,6.34C206.32,305.93,206.87,315.8,206,325.66Z"/><path class="cls-16" d="M197,117.73c-1.44,1.64-1.34,3.66-1.34,5.65v39.85c-.74,2-2.56,1.77-4.11,1.79-6.49.08-11.3,2.86-14,8.8S176,185.17,179.85,190a8.61,8.61,0,0,1,1.63,8.63c-1.39,4.78-2.59,9.62-4.33,14.3-.58,1.58-.93,3.51-3.25,3.55-1.68-1.23-1.46-3.06-1.41-4.77.29-10.55.4-21.14.29-31.65-.16-14,0-28.07-.31-42.1a4.69,4.69,0,0,0-.95-3.14c3.39-5,7.94-8.87,11.73-13.47,1.27-1.53,2.63-3,4-4.48C192.54,110.86,192.55,110.86,197,117.73Z"/><path class="cls-17" d="M206,325.66c-1.82-1-1.3-2.83-1.3-4.37,0-10.22,0-20.44,0-30.66.73-1.7,2.3-1.76,3.78-1.8q13.4-.33,26.79,0c1.47,0,3,.08,3.84,1.72v24.61c-5.22-1-10.48-1.93-15.64-3.21-3-.74-5,.08-6.9,2.24C213.09,318.07,209.5,321.84,206,325.66Z"/><path class="cls-18" d="M133.77,317.54c-1.79-.7-1.69-2.26-1.69-3.76q0-40.83,0-81.66c0-2.46.46-4.93.71-7.39,3.12.06,2.87,2.66,3.17,4.55,2.07,13.11,4,26.25,6,39.36.45,2.82.84,5.65,1.27,8.47.75,5,1,10.16,5.53,13.6,1.4,7,.67,14,.51,20.94a4.07,4.07,0,0,1-1.57,2.83A77.14,77.14,0,0,1,133.77,317.54Z"/><path class="cls-9" d="M147.78,314.48q0-11.93,0-23.85c.74-1.69,2.31-1.75,3.78-1.8q8.94-.33,17.87,0c1.48.05,3.05.11,3.79,1.8q0,15,0,29.9c-2.11-2.26-4.26-4.5-6.32-6.8a5.59,5.59,0,0,0-6-1.89C156.54,312.85,152.15,313.61,147.78,314.48Z"/><path class="cls-19" d="M76.19,254.72c-1.11-1.24-1-2.76-1-4.25q0-23.65,0-47.32a10.11,10.11,0,0,1,.79-4.73q7.89,13.29,15.8,26.56a3.06,3.06,0,0,1,0,3.47Q84,241.58,76.19,254.72Z"/><path class="cls-1" d="M89.42,345.25H75.2l-46.63-.13a19.66,19.66,0,0,1-3.35-.1c-2.49-.47-4.06-1.92-3.93-4.61s1.72-4.08,4.3-4.22c2.36-.13,4.73,0,7.09-.05L76,336l15.6.13c4.16,0,6,1.34,6.15,4.24.11,3.22-1.68,4.62-6,4.74C90.9,345.14,90.16,345.2,89.42,345.25Z"/><path class="cls-20" d="M41.92,322.89H26.61c-3,0-5.26-1-5.32-4.35S23.46,314,26.43,314q15.3-.06,30.61,0c2.94,0,5.17,1.12,5.39,4.41.19,2.8-1.87,4.46-5.58,4.51C51.88,322.94,46.9,322.89,41.92,322.89Z"/><path class="cls-1" d="M57.27,31.38a17.22,17.22,0,1,1-17.48-17A17.15,17.15,0,0,1,57.27,31.38Z"/><path class="cls-1" d="M84.94,14.26c10.73.49,17.63,5.82,18.77,14.51C105.15,39.82,98.18,48,86.43,49c-9.91-1.05-16.55-7.55-17-16.66C68.94,23.41,75,16.32,84.94,14.26Z"/><path class="cls-1" d="M133.57,49c-8.69-.76-14.43-5-16.72-12.44a17.25,17.25,0,0,1,5.71-18.41c3.65-3,7.91-3.94,12.5-3.85,10,2,16.15,9.15,15.62,18.23S143.42,48,133.57,49Z"/><path class="cls-1" d="M173.23,290.63H147.79c-3.67-.42-4.79-2.86-5.27-6.16q-4.14-28-8.48-56c-.2-1.26.06-2.79-1.22-3.74-8.85-4.2-12.92-10-12.41-17.61a17,17,0,0,1,21.12-15.4c1.08.26,2.15.58,3.23.88,7.19,4.54,10.94,10.69,9.1,19.45a2.69,2.69,0,0,0,1.19,2.9c1.18.92,2.24,2,3.47,2.84,3.24,2.23,4.19,5,2.57,8.7a16,16,0,0,0-1.46,6.89,9,9,0,0,0,5.52,8.58,9.68,9.68,0,0,0,13.56-10.88,25.6,25.6,0,0,0-3.15-7.55,11,11,0,0,1-1.66-7.1c3.13-6.77,4.68-14,6.68-21.17a2.36,2.36,0,0,0-.59-2.37c-5.57-6.5-8-13.53-3.15-21.54,4.32-7.16,11-9,18.83-8.12,8.1,3.07,13,8.46,12.75,17.57a15.3,15.3,0,0,1-4.34,10.43,4,4,0,0,0-1,4.31,165,165,0,0,0,6,20,7.49,7.49,0,0,1-.5,7.07,31.63,31.63,0,0,0-3.5,7.8,9.83,9.83,0,0,0,4.45,11.25c3.85,2.25,8.38,1.51,11.81-1.92s3.11-7.29,1.88-11.4c-2.14-7.15-2.2-7.24,3.62-11.86,2.31-1.84,3.43-3.45,2.9-6.8-1.32-8.31,4-15,13.9-18.48,9.84-.24,16.41,3.82,19,11.74a16.63,16.63,0,0,1-7.77,19.84c-2.46,1.32-3.21,3-3.57,5.43-2.78,18.67-5.66,37.32-8.42,56-.4,2.73-1.09,5.09-3.77,6.37l-34.41.09Z"/><path class="cls-21" d="M31.82,31.29a8.17,8.17,0,0,1,8.61-7.93,8,8,0,0,1,7.84,8.29,8.18,8.18,0,0,1-8.39,8.19A8.27,8.27,0,0,1,31.82,31.29Z"/><path class="cls-22" d="M86.6,23.38a7.93,7.93,0,0,1,8.28,8.17,8.19,8.19,0,0,1-8.26,8.29,8.37,8.37,0,0,1-8.21-8.06A8.23,8.23,0,0,1,86.6,23.38Z"/><path class="cls-23" d="M133.47,23.37a8.26,8.26,0,0,1,8.22,8.37,8.4,8.4,0,0,1-8.55,8.1,8.18,8.18,0,0,1-7.93-8.25A8,8,0,0,1,133.47,23.37Z"/><path class="cls-24" d="M184.33,244.67c4.94-7.86,4.55-15.74.08-23.61a5.71,5.71,0,0,1-.53-4.95c1.75-5.45,3.42-10.93,4.91-16.46.5-1.84,1.12-2.76,3.19-2.8s2.42,1.23,2.85,2.72c1.5,5.27,2.94,10.55,4.64,15.76a7,7,0,0,1-.41,6c-2.62,4.92-4.33,10.11-3,15.79,2.26,9.77,9.63,14.82,21.28,14.65,1,2.67.17,5.41.32,8.11.35,6.7-.68,13.45.88,20.1a2,2,0,0,1-.42,1.4H185.94c-2.38-1.18-3.23-3.17-3.25-5.76-.05-8.31,0-16.62,0-24.93C182.67,248.48,184,246.72,184.33,244.67Z"/><path class="cls-25" d="M218.1,281.4a9.73,9.73,0,0,1-2.26-6.91c.1-6.09,0-12.19,0-18.29,0-1.64,0-3.26,1.45-4.41,12.12-3,17.84-12.32,14.82-24.53-.58-2.31-.16-3.59,1.6-5.08s2.85.24,4.27.55c4.81,1.05,4.57,4.19,3.94,8q-3.85,23.78-7.32,47.61c-.33,2.27-1,3.3-3.45,3.19C226.82,281.36,222.46,281.44,218.1,281.4Z"/><path class="cls-26" d="M184.33,244.67c1,2.79,0,5.61.06,8.42.19,6.42.13,12.85,0,19.28a20.56,20.56,0,0,0,1.53,9H161.25c-2.4-1.2-3.23-3.21-3.25-5.81,0-6.85-.12-13.69,0-20.54.05-2,.19-4.06,2.47-5C169.67,253.63,177.65,252,184.33,244.67Z"/><path class="cls-27" d="M160.51,250.05c-1.49,8.76-.55,17.58-.65,26.37,0,1.66.9,3.32,1.39,5-9.84.54-9.89.54-11.43-9.28-2.36-15.09-4.63-30.19-7-45.27-.23-1.52-.26-2.78,1.49-3.22,1.92-.5,3.24-3.41,5.89-1.15a3.71,3.71,0,0,1,1.32,4.47C148.84,236.82,152,244.49,160.51,250.05Z"/><path class="cls-28" d="M145.38,208.25a8.09,8.09,0,0,1-8.32,7.81,8,8,0,0,1-7.63-8.08,8,8,0,1,1,15.95.27Z"/><path class="cls-29" d="M191.57,172.05a7.67,7.67,0,0,1,7.87,7.69,7.89,7.89,0,1,1-15.77,0A7.68,7.68,0,0,1,191.57,172.05Z"/><path class="cls-30" d="M246.42,200.13a8.08,8.08,0,0,1,8,8.11,8,8,0,0,1-7.86,7.84,8.43,8.43,0,0,1-8.09-8.11A8.18,8.18,0,0,1,246.42,200.13Z"/></svg>