<svg id="Layer_1" data-name="Layer 1" xmlns="http://www.w3.org/2000/svg" viewBox="0 0 383.13 382.77"><defs><style>.cls-1{fill:#65b8fe;}.cls-2{fill:#5b5e8a;}.cls-3{fill:#312e4b;}.cls-4{fill:#e73d62;}.cls-5{fill:#feae92;}.cls-6{fill:#aa604b;}.cls-7{fill:#3e7ffe;}.cls-8{fill:#ed8778;}.cls-9{fill:#c5c5f6;}.cls-10{fill:#c6754f;}.cls-11{fill:#dddcfe;}.cls-12{fill:#8b4f4f;}.cls-13{fill:#cd2955;}.cls-14{fill:#feaf93;}.cls-15{fill:#feae93;}.cls-16{fill:#ee897a;}.cls-17{fill:#fdae93;}.cls-18{fill:#ce2955;}.cls-19{fill:#ce2a55;}.cls-20{fill:#35304c;}.cls-21{fill:#34304c;}</style></defs><path class="cls-1" d="M311.7,264.14c7.55.51,15.15-.55,22.66,1.41,17.55,4.57,30.63,20,31,38.06.39,19.06,0,38.13.2,57.2,0,3.66-2.27,2.82-4.22,2.82q-73.83,0-147.67,0c-9.72,0-19.44.13-29.15.11-1.26,0-2.76.71-3.78-.73,1.45-1.3,3.25-1.1,5-1.11,5.6,0,11.2,0,16.8,0,4.54,0,4.79-.25,4.79-4.92,0-17.17.33-34.35-.07-51.51-.45-19,13.94-37.49,33.69-41.39,1.1-.22,2.17-.54,3.28-.75,4.33-.56,8.68-.27,13-.28q24.21-.06,48.4,0C307.68,263.05,309.86,262.72,311.7,264.14Z"/><path class="cls-2" d="M321.35,193.29c-2,5.06-3.33,10.39-5.56,15.4a63.56,63.56,0,0,1-16.28,22.49c-2.32,3.54-6.1,5-9.74,6.5a39,39,0,0,1-15.63,2.86c-1.4,0-3.09.31-3.78-1.56,1.18-1.57,2.69-.58,4.09-.52.49.08-.06-.68,0-.19,0,.12-.08.16-.32.12-8.48-1.27-14.82-6.23-20.47-12.17-10.24-10.74-15-24.19-18.4-38.25-3-12.32-3.64-24.86-3.16-37.47.46-11.83,9.78-23.74,21.13-27.23a49.59,49.59,0,0,0,10.87-4.89c3.86-2.3,7.79-4.43,12.3-5.16,4.89,3.57,11,2.42,16.36,4.22,3.18,1.07,6.42,2,9.5,3.3,12.28,5.36,18.22,15.15,19.84,28.11.7,5.55,1.45,11.1,1.72,16.69A48.14,48.14,0,0,1,321.35,193.29Z"/><path class="cls-2" d="M162.75,188.53c9.31,2.23,18.68,4.23,27.91,6.74A46,46,0,0,1,225,239.08c.21,8.35.08,16.7.11,25a2.54,2.54,0,0,1-2.27,1.07c-5.53-.25-10.78,1.23-16.06,2.55-11.33-.27-22.65-.07-34-.08-2.49,0-3.65,1.17-3.61,3.64,0,1,0,2,0,3-.12,2.71,1.21,3.78,3.84,3.77q6.17,0,12.32,0a8.35,8.35,0,0,1,4,.66c1.25,1.23.32,2.38-.33,3.29-6.3,8.69-7.72,18.56-7.26,29,.09,2.12.67,4.53-1.45,6.21a8.28,8.28,0,0,1-3.64.61q-21.37,0-42.74,0a11.5,11.5,0,0,1-2.93-.32c-2-.61-2-2.31-2.07-3.93-.07-5.23,0-10.45,0-15.68,0-2.54,1.22-4.5,2.75-6.36,12.16-14.8,24.08-29.81,36.18-44.66,3.32-4.07,3.3-4.09.53-8.72-1.67-2.77-3.43-5.49-4.94-8.35-1.43-2.7-.93-3.6,2.08-3.84,2.6-.21,5.22,0,7.83-.08,3.54-.07,3.8-.39,2.4-3.64-3.81-8.79-7.37-17.69-11.24-26.45-.9-2.05-1.8-4.1-2.68-6.16C161.78,189,162,188.48,162.75,188.53Z"/><path class="cls-3" d="M162.14,189.46c2.08,1.2,2.14,3.56,3,5.42,4.15,9.57,8.06,19.23,12.3,28.76,1.33,3,.28,3.29-2.31,3.2-3.85-.14-7.7,0-12.33,0,2.88,4.86,5.38,9.32,8.15,13.62,1.12,1.74,1.2,2.72-.22,4.44-13,15.81-25.8,31.75-38.69,47.64a9.31,9.31,0,0,0-2.24,6.46c.16,5.84,0,11.69,0,17.54-1.49,1.52-3.18,1.23-4.92.58-1.48-1.19-1.22-2.9-1.24-4.48-.07-4-.15-8,0-12a11.61,11.61,0,0,0-2.89-8.2q-18-22.21-35.95-44.52c-4.05-5-4-5-.8-10.35,1.67-2.78,3.37-5.54,5-8.36a1.4,1.4,0,0,0,.09-1c-2.53-.79-5.24-.27-7.89-.32-6.13-.13-6.69-1-4.35-6.5Q82,209,87.27,196.58a3.77,3.77,0,0,0,.49-2.13c-21.37,2.16-38.24,17.62-41.91,38.31a31.7,31.7,0,0,0-.29,5.59q0,36.47,0,72.94c0,2.11.77,4.61-1.76,6.06-3.83.86-7.68.5-11.52.33-1.72-.08-3.06-.65-3.05-2.89.15-26.24-.2-52.47.2-78.7A46.69,46.69,0,0,1,65.18,194.7c7.94-1.95,15.91-3.78,23.86-5.71a6.31,6.31,0,0,1,3.31-.09,4.22,4.22,0,0,1,1.72,2.76c4.25,14.12,9.13,28,13.35,42.16a43.14,43.14,0,0,0,1.4,4.3c1.14,3.95,2.26,7.91,3.69,11.77.68,2.32,1.45,4.6,2.28,6.87,1.39,4.25,2.09,8.74,4.46,12.64,1.71,8.67,5.18,16.82,7.47,25.33a3.79,3.79,0,0,1,.12,2.23c2.39-7.75,5.26-15.71,7.56-23.86,7.34-22.45,14.2-45.05,21.39-67.55q2.1-6.57,4.31-13.11C160.49,191.28,160.85,190,162.14,189.46Z"/><path class="cls-4" d="M208.93,17.2c3-1.23,6.15-.57,9.21-.57,23.32,0,46.63.07,69.95.11,9.77,0,13.27,3.51,13.28,13.28q0,22.08,0,44.14c0,8.3-3.83,12.11-12.1,12.12-16.33,0-32.66.07-49-.06a8.49,8.49,0,0,0-6.6,2.63c-2.82,2.82-5.86,5.4-8.83,8.07-1.21,1.1-2.42,2.22-4.29,1.34-2.09-1-1.79-2.8-1.59-4.51.28-2.46,1.16-4.86.64-7.39-5.54-2.23-7.77-6.58-7.78-12.29,0-14.83,0-29.65,0-44.48a16.62,16.62,0,0,1,3.86-10.77C213.4,17.82,210.72,19.24,208.93,17.2Z"/><path class="cls-5" d="M173.32,150.57a4.33,4.33,0,0,0-3.37,3.92c-2.17,12-8.82,21.15-18.54,28.25-5.64,5.1-12.26,7.86-19.77,6.27-20.48-4.34-34.23-21.66-34.28-42.63q0-19.22,0-38.42c0-1.84-.31-3.76.83-5.43,1.61-1.11,3.1-.23,4.62.26,13.2,4.32,26.57,7.77,40.58,7.73a49.74,49.74,0,0,0,23.41-5.6c1.22-.64,2.53-1.87,4-.31,1.11,6.78.33,13.6.58,20.4.24,6.45.09,12.91,0,19.36A8.69,8.69,0,0,0,173.32,150.57Z"/><path class="cls-6" d="M170.22,104.24c-16.72,10.17-34.41,8.16-52.19,4-6.6-1.54-13.06-3.68-19.58-5.55-1,0-1.11-.67-1.17-1.42,0-14.83-.24-29.66.12-44.49,13.52-6.82,27.11-5.31,40.74-.37a4.62,4.62,0,0,1,.67.33c6.31,3.5,12.51,5,20.2,3.77,11.11-1.82,19.36,7,20.36,19.7.49,4.3.08,8.62.22,12.93-.91,5.09-4.68,8.07-8.28,11.18A1.17,1.17,0,0,1,170.22,104.24Z"/><path class="cls-7" d="M206.78,267c5.83-2.68,12-2.94,18.3-2.91h7.24c3.78-1.56,7.53-1.77,11.26.16-4.32,1.4-8.84,2.23-12.87,4.49-13.94,7.82-22.1,19.35-22.28,35.66-.19,18.3-.11,36.6,0,54.9,0,3-.87,3.84-3.8,3.77-8-.18-15.94-.07-23.91-.08l-.3-26.23a45.9,45.9,0,0,1,0-20.1c.14-5.8-.14-11.64.52-17.38.86-7.47,4.1-14.14,8.74-20.09C193.44,272.42,199.31,268.62,206.78,267Z"/><path class="cls-8" d="M97.63,101.93l.82.77c0,15.3-.43,30.61.07,45.89a41.53,41.53,0,0,0,35.54,39.88c5.31.81,10.34-2.09,15.06-4.63.76-.4,1.32-1.15,2.29-1.1.09,1,.18,2,.26,2.94a3.55,3.55,0,0,1,.4,3.58c-.89,1.67-2.55,2.3-4.15,3A52.21,52.21,0,0,1,128,196.4c-1.12,0-2.24,0-3.35.09a7,7,0,0,0-6,4.47,6.59,6.59,0,0,0,1.19,7.3A20.81,20.81,0,0,0,128,214.1c1.1.44,2.9.44,2.57,2.48-6.41,2.16-15.15-.93-20.34-7-6-7-6.94-15.18-5.62-23.89,1-2.09.57-3.43-1.46-4.93a41,41,0,0,1-16.53-27.29c-.32-1.95-1.14-2.37-2.7-2.74-12.37-3-16.51-15.17-8.37-24.87a5.72,5.72,0,0,0,1.22-4.1q.06-14,.15-28c2.34.79,1.59,2.86,1.62,4.4.14,6.48,0,13,.1,19.44,0,1.3-.76,3.5,1.45,3.55s4.32-.68,4.47-3.49c.19-3.62,0-7.23.08-10.85a67.12,67.12,0,0,1,.15-7.09c.2-1.68.92-3.07,2.88-2.45C91.14,98.41,94.88,99.13,97.63,101.93Z"/><path class="cls-9" d="M151.42,189.37c.08-1.23.17-2.46.25-3.7l11.08,2.86a.81.81,0,0,0-.61.94q-12.76,39.89-25.52,79.79c-.41,1.28-1,2.52-1.44,3.78-1.45-1.28-1.54-3.13-1.66-4.8q-.95-13.92-2.4-27.8a14,14,0,0,1,2.37-8.85c1.6-2.61,1.28-4.38-1.43-6.15-5.32-3.49-5.23-3.63-10.32.12l-3,2.23c-1.39,1-2.88,1.9-4.33,2.93a4.45,4.45,0,0,1,5.31.34,9.43,9.43,0,0,1,2.56,4.95c-.21,2.19.33,4.34.36,6.52-.87,7.63-1.05,15.32-2.09,22.93-.21,1.56-.18,3.29-1.94,4.15-3.14-3.68-3.39-8.41-4.67-12.77a9.46,9.46,0,0,0-2.28-6.73A56.92,56.92,0,0,1,108,238.29c-.31-1.73.62-3,1.64-4.25-1,.36-1.89,1.22-3,.28q-5.3-16.2-10.58-32.41c-1.39-4.3-3-8.53-3.79-13,3.62-2.81,8.2-1.93,12.22-3.21,1.32,2.18.64,4.59.56,6.85-.46,14.07,11.45,25.58,25.35,23.71a5.76,5.76,0,0,1,3-1.42c10.57-3.1,16-10.35,17-21.13A10.72,10.72,0,0,1,151.42,189.37Z"/><path class="cls-10" d="M180.46,316.7l0,20.1-79.82-.1c-4.68-1.36-7.1-4-7.57-8.4-.5-4.7,1-8.5,5.15-11.08a10.68,10.68,0,0,1,3.39-1.47c6.64-.6,13.3-.23,20-.24a4.81,4.81,0,0,1,3.11,1h5.13Z"/><path class="cls-6" d="M100.68,316.71c-7,4.48-8.78,9.94-5.19,15.81,1.24,2,3.4,2.81,5.12,4.18q-36.23.06-72.45.09a10,10,0,0,1-9.8-9c-.48-5.3,2.73-10.36,7.8-11,2.82-.36,2.73-1.56,2.72-3.54q0-35.49,0-71c0-2.08-.38-4.22.5-6.24q0,32.67.07,65.34c0,4,.11,8,0,11.94-.08,2.31.46,3.44,3.06,3.31,4-.22,8-.12,12-.16a6.62,6.62,0,0,1,4.26-1.09q23.93,0,47.85,0C98,315.44,99.56,315.42,100.68,316.71Z"/><path class="cls-11" d="M243.58,264.29l-11.26-.16a49.06,49.06,0,0,1,.22-7.39c1.32-7.65,6.4-12.51,17.07-12a4.25,4.25,0,0,1,3.49-1c12.69,1.19,25.42.26,38.12.57,1.84.05,3.78-.28,5.36,1.1,11.11.39,15.06,4.5,15.08,15.73,0,1,0,2,0,3l-65.89.09Z"/><path class="cls-3" d="M276.44,113.22c-8.41,3.59-15.9,9.08-24.85,11.65-9.24,2.65-18.07,15.16-18.49,25.45-.81,19.85,1.67,39.18,9.78,57.47,6.56,14.77,16.42,26.22,33.88,30.85l-6.32.32a3.52,3.52,0,0,1-3.16.65,40.34,40.34,0,0,1-18.74-8.5,9.33,9.33,0,0,1-1.91-2.73c-9.65-9.65-15.26-21.53-19-34.44a7.17,7.17,0,0,1-2-3.86c-1.46-5.74-2.36-11.58-3.25-17.43-.36-2.38.91-4.58.45-6.92-.09-7.81-1-15.66,2-23.23,3.65-9.15,9.39-16,19.3-18.66,5.11-1.36,9.47-4.29,14-6.77C263.91,114,269.86,112.15,276.44,113.22Z"/><path class="cls-12" d="M97.63,101.93,85.76,97.64c0,6.68-.16,13,.07,19.28.11,2.92-.6,4.34-3.64,5.07-4.87,1.18-4.81,1.43-4.81-3.73,0-7,0-13.93,0-20.89,0-1.2.4-2.5-.48-3.6-.3-5.46-.45-10.91,1.06-16.26C80.85,67.23,88.27,61.22,97.4,56.79c1.16.72,1,1.88,1,3V99.2C98.42,100.18,98.57,101.22,97.63,101.93Z"/><path class="cls-13" d="M208.93,17.2h9.25c-6.57,5.22-5.25,12.32-5.27,19,0,11.44.3,22.89-.13,34.32-.26,6.63,1.36,11.92,6.81,15.84-2,0-4,.07-6,.07-9.49,0-13-3.54-13-13.15,0-7.86,0-15.72,0-23.57,0-7.24-.1-14.47,0-21.7C200.78,21.92,203.45,18.6,208.93,17.2Z"/><path class="cls-14" d="M246.63,228.38c7,5.76,14.55,10,23.81,10.58,9.76,1.76,18.42-1.2,26.59-6.21.84-.51,1.66-1.05,2.48-1.57q-1.47,7.14-2.93,14.27c-15.66-.25-31.33.68-47-.68Q248.13,236.58,246.63,228.38Z"/><path class="cls-15" d="M179.14,94.39q.12-7.08.23-14.18c1,2.39.61,4.9.62,7.36,0,11.34,0,22.68-.07,34A6.21,6.21,0,0,0,181.3,126c7.54,8.84,4.39,20.18-6.62,24.27a4,4,0,0,1-1.06-3.09c-.12-7.44-.14-14.89,0-22.34a5.2,5.2,0,0,1,.65-2.49c3.74-.74,4-3.33,3.9-6.55-.23-4.83,0-9.68-.08-14.52A18.55,18.55,0,0,1,179.14,94.39Z"/><path class="cls-16" d="M174.73,122.06q0,14.13,0,28.25l-1.36.26c-2.87.35-3.11-1.33-3.1-3.63.06-14.24,0-28.47,0-42.7a1.56,1.56,0,0,1,.68-.06c2,2.34,1.07,5.17,1.16,7.78C172.2,115.56,171.58,119.29,174.73,122.06Z"/><path class="cls-17" d="M321.35,193.29a145.14,145.14,0,0,0,2.51-27.75C332.44,174.37,331.21,187.94,321.35,193.29Z"/><path class="cls-14" d="M222.81,165.73a168.38,168.38,0,0,0,4.82,28.21,17.56,17.56,0,0,1-6.7-24.26C221.64,168.4,222.65,167.27,222.81,165.73Z"/><path class="cls-3" d="M206.78,267c-6.84,2.46-12.27,6.87-17.06,12.19-5.86,0-11.72-.13-17.57,0-3,.08-4.28-.79-4.2-4,.26-10.2-1.18-8.69,8.71-8.76,8.85-.07,17.69,0,26.53,0C204.4,266.51,205.7,266.1,206.78,267Z"/><path class="cls-2" d="M100.68,316.71l-51-.09c-1.74,0-3.48-.07-5.21-.11,0-26.29-.39-52.59.23-78.86.43-18.06,10-31,25.89-39.31,5.91-3.08,12.46-4,19.48-5.86-2.93,7-5.67,13.57-8.43,20.12-1.49,3.55-3,7.11-4.54,10.63-1.12,2.47-1.22,3.87,2.27,3.63,3.84-.26,7.71-.06,12.27-.06-2.85,4.72-5.37,9.06-8.08,13.28-1.12,1.74-1.47,2.84.11,4.76,11.26,13.72,22.32,27.6,33.45,41.42,2.18,2.71,4.32,5.45,6.6,8.07,1,1.2.92,2.51.92,3.87q0,9.15,0,18.31Z"/><path class="cls-4" d="M121.64,235.74l-2.39-4.42c-.86-1.09-1.94-2.1-1.46-3.72,2.4-2.44,5.46-4,8.11-6.09,1-.77,1.58-.42,2.29.07,2.25,1.56,4.4,3.28,6.73,4.71,1.59,1,1.61,2,.68,3.3-3.42,4.88-3.76,10.15-3,16,1.24,9.11,1.73,18.32,2.54,27.49-1.87,8.5-5.21,16.55-8,24.94-3.18-9.41-7.13-18.51-8.61-28.37,1.67-2.24,1.18-5.1,1.3-7.44.21-4.3,1.5-8.56.92-12.86-.35-2.56,1.39-4.77.84-7.28A16.43,16.43,0,0,0,121.64,235.74Z"/><path class="cls-9" d="M106.72,234.32c1.53-.08,2.61-1.18,4.22-1.89-.29,2.46-2.28,3.85-2.91,5.86A8.9,8.9,0,0,1,106.72,234.32Z"/><path class="cls-9" d="M111.67,250.11c2.73,1.58,3.51,3.81,2.28,6.73Z"/><path class="cls-18" d="M252.49,54.73c-7.72,0-15.45,0-23.17,0a11.45,11.45,0,0,1-3.32-.28c-1.45-.43-3.52-.5-3.3-2.81s1.94-2.9,4-2.89c9.6,0,19.19,0,28.78,0,7.35,0,14.71,0,22.06,0,2.16,0,4.46.15,4.53,2.65s-2.42,3.29-4.57,3.31C269.19,54.79,260.84,54.72,252.49,54.73Z"/><path class="cls-19" d="M252.18,69c-8.34,0-16.68,0-25,0-2.15,0-4.31-.24-4.42-2.83-.12-2.87,2.11-3.19,4.42-3.18q25,0,50,0c2.15,0,4.31.23,4.42,2.82.12,2.87-2.11,3.2-4.43,3.19C268.86,68.93,260.52,69,252.18,69Z"/><path class="cls-18" d="M244.24,39.78c-6,0-12-.05-17.94,0-1.85,0-3.44-.36-3.49-2.4-.06-2.2,1.61-2.86,3.57-2.86h35.89c2,0,3.56.75,3.65,2.87.12,2.64-2,2.37-3.73,2.37C256.21,39.79,250.22,39.78,244.24,39.78Z"/><path class="cls-18" d="M277.08,39.9c-2.05-.77-5.72,1.47-5.71-2.74s3.58-2.4,5.68-2.55c2.42-.16,6.09-1,6,2.92S279.08,39,277.08,39.9Z"/><path class="cls-8" d="M128.41,169.22a13.46,13.46,0,0,1-12.2-7.77c-.86-2-.31-2.73,1.78-2.72,7,0,14,0,21,0,2,0,2.3.79,1.59,2.59C138.78,165.81,133.7,169.19,128.41,169.22Z"/><path class="cls-20" d="M148.87,119.66a8.11,8.11,0,0,1,7.57,4.51c.78,1.4.65,2.35-1.31,2.33-4.35,0-8.69,0-13,0-2,0-1.62-1-1-2.1A8.24,8.24,0,0,1,148.87,119.66Z"/><path class="cls-21" d="M116.31,126.49H101.57c-2.51,0-1.79-1.35-1.09-2.65a8.36,8.36,0,0,1,8.89-4.07C113,120.37,115.25,122.52,116.31,126.49Z"/><path class="cls-8" d="M131.35,144.39c0,1,0,2,0,3,.06,1.88-.55,3.11-2.69,3.18s-3.78-.6-4-2.9a57.89,57.89,0,0,1-.06-6.32c0-2.22,1.13-3.52,3.4-3.5s3.31,1.39,3.34,3.59C131.36,142.4,131.35,143.39,131.35,144.39Z"/><path class="cls-12" d="M174.73,122.06c-3.77-.48-4.09-3-3.88-6.13.26-3.9.06-7.83.05-11.75l8.24-9.79v29.06Z"/><path class="cls-5" d="M151.42,189.37c.54,14.48-6.06,23.75-19.11,26.8a9.25,9.25,0,0,1-1.83.08c-3.69-1.66-7.42-3.13-10.41-6.14-2.79-2.81-3.72-5.83-2.5-9.44,1.14-3.4,4.35-5.3,8.53-5.25A49.88,49.88,0,0,0,151.42,189.37Z"/><path class="cls-9" d="M117.79,227.6l1.46,3.72c-2.39-2-4.47,1.22-7.1.48C113.68,229.64,115.8,228.71,117.79,227.6Z"/><path class="cls-9" d="M121.64,235.74c1.31,2.08.72,4.18,0,6.28C121.75,239.93,120.65,237.84,121.64,235.74Z"/></svg>