<svg id="Layer_1" data-name="Layer 1" xmlns="http://www.w3.org/2000/svg" xmlns:xlink="http://www.w3.org/1999/xlink" viewBox="0 0 383.13 382.77"><defs><style>.cls-1{fill:url(#linear-gradient);}.cls-2{fill:#fefefe;}.cls-3{fill:#3c7db7;}.cls-4{fill:#288ec0;}.cls-5{fill:#2d8abe;}.cls-6{fill:#3384bb;}</style><linearGradient id="linear-gradient" x1="189.74" y1="-6.39" x2="194.33" y2="398.04" gradientUnits="userSpaceOnUse"><stop offset="0" stop-color="#0da5cb"/><stop offset="1" stop-color="#5e5fa8"/></linearGradient></defs><path class="cls-1" d="M382.72,176.79A161.72,161.72,0,0,0,373,128.91a160.32,160.32,0,0,0-8-19.76c-4.77-9.75-9.67-19.43-16.42-28,.58-2.07-1.13-3.57-2.23-5.06a194.26,194.26,0,0,0-31.28-33c-24-20.16-51.43-33.38-82-40.27-8.89-2-17.89-2.61-26.89-3.37H177c-3.5,1.31-7.23,1.13-10.86,1.65C127.61,6.64,93.71,22.16,64.61,48c-11,9.78-21,20.54-29.12,32.92h0a145.67,145.67,0,0,0-15.87,26.42c-6.22,12.88-11.32,26.16-14,40.27-4.83,18.1-5.71,36.56-5,55.16,0,.33.35.65.53,1-.23,5.63.69,11.15,1.59,16.66,2,12.46,4.65,24.79,9.61,36.49A171.33,171.33,0,0,0,42.17,310a29.61,29.61,0,0,0,1.9,2.74c42.69,49.42,96.48,73.06,161.86,69.14,35.53-2.13,67.73-14.13,96.74-34.65A175.56,175.56,0,0,0,341.72,310h0a176.52,176.52,0,0,0,32.72-61.41h0c3.38-9.24,5.17-18.86,6.87-28.51.83-4.7.54-9.57,2.18-14.13V177.54Zm-72.25-42.27q-.08,18.71,0,37.4c0,1.61-.17,3.34,1.1,4.64l-.09.06c-1.05,1.4-1,3-1,4.65-.23,21.73.39,43.47-.36,65.2a2.73,2.73,0,0,0-1.23,1.28c-4.37,7.44-11.19,9.61-19.36,9.54-16.7-.16-33.41-.05-50.11-.05-7.35,0-14.71-.09-22.06.05-3.86.08-4.88,1.23-4.73,5,.21,5.26,2.95,9.16,7,12.24s8.59,6,12.89,9c1.71,1.2,3.82,2.47,3.16,5-.75,2.85-3.34,3-5.76,3.09-2,.08-4,0-6,0q-34.22,0-68.43,0c-2.7,0-6,.5-7.07-2.78-1.15-3.46,2.27-4.58,4.31-6.16,3.65-2.82,7.71-5.06,11.37-7.89a18.45,18.45,0,0,0,6.46-8.51c2.3-6.57.55-9-6.33-9.07-1.12,0-2.25,0-3.37,0-26.84-1.13-53.8,2.43-80.55-2.13a3.81,3.81,0,0,0-1-1.4c-4.62-4.27-6.13-9.6-6-15.77.2-9.66.08-19.32,0-29,0-1.71.34-3.57-1-5a1,1,0,0,1,.13-.09c1-1.41,1-3.06,1-4.67q0-23,0-46c0-1.62.16-3.34-1.1-4.64,1.35-1.71,1.06-3.75,1.06-5.69,0-11.72-.1-23.44.07-35.16.15-10.09,6-16.25,16.06-17.2,1.37-.13,2.74-.12,4.11-.12H290.35c1,0,2,0,3,0,10.7.59,17,7,17.13,17.76.08,5.61,0,11.22,0,16.83,0,1.67-.12,3.41,1.09,4.79C310.3,131.16,310.47,132.9,310.47,134.52Z"/><path class="cls-2" d="M311.78,129.65v47.14q-.06,27.77-.12,55.53c0,4.69.29,9.41-.75,14.05-4,8.62-10.77,11.93-20.09,11.85-24.54-.22-49.08,0-73.62-.14-3.14,0-4.2.78-3.77,4a16.86,16.86,0,0,0,7.3,12.06c4.39,3.07,8.82,6.07,13.25,9.08,2.15,1.47,4.09,3.08,3.14,6.07s-3.22,3.47-5.93,3.46q-39.24,0-78.48,0c-2.71,0-5-.57-6-3.44s1-4.56,3.14-6c4.64-3.15,9.29-6.28,13.82-9.58a16.21,16.21,0,0,0,6.77-12.34c.2-2.42-.51-3.28-3-3.25-9,.13-17.94.05-26.91.05-16,0-31.9,0-47.84,0a25.41,25.41,0,0,1-12.26-2.6c-5.86-3.21-8.07-8.57-8.18-14.81-.21-12.34-.13-24.69-.18-37V148.36q.07-20.19.13-40.38c0-11.15,7.3-18.64,18.4-18.65q101.34-.06,202.66,0c11,0,18.33,7.55,18.38,18.64Q311.71,118.82,311.78,129.65Z"/><path class="cls-3" d="M289.25,111.81c1,1.07.5,2.38.51,3.57,0,36.15,0,72.31.09,108.47,0,3.42-1,4.06-4.21,4.06q-93.69-.15-187.4,0c-3.16,0-4.23-.62-4.21-4,.13-36.16.07-72.32.1-108.48,0-1.18-.49-2.49.49-3.56,1.63,1.77,1.22,4,1.22,6.05q.06,25.6,0,51.21c0,6.51,0,6.56,6.68,6.51,14.33-.12,28.66.34,43-.29,1.63.07,2.71,1.09,3.77,2.17,3.53,3.63,7.5,6.58,12.55,7.74,2.72.62,3.46,2.46,3.46,5,0,6,.06,12,0,17.94-.1,9.52,6.91,10.67,13.25,8.87,3.62-1,4.76-4.13,4.81-7.64.1-6,0-12,0-17.94.05-5.6,1.2-6.46,6.81-5.51a29.24,29.24,0,0,1,9.64,3.92q8.73,5,17.51,10c6.35,3.62,9.36,1.89,9.43-5.33,0-4.61-.16-9.23.12-13.82.07-1.08-.75-3.67,2.21-2.65,1.54,5.8,1.54,5.8,7.94,5.8q22.92,0,45.85,0c4.85,0,5.07-.24,5.11-5,.07-9.69-.1-19.38.07-29.08-.21-11.26-.07-22.52-.06-33.78C288,114.48,288.07,113,289.25,111.81Z"/><path class="cls-4" d="M289.25,111.81l-.12,38.05c-1.78,1.56-4,1.15-6,1.17-15.11.12-30.21-.17-45.31.18-3.63-.86-7-2.16-9.81-4.81-.87-4.69-.21-9.42-.42-14.13-.1-2.1.29-4.23-.41-6.28-2.42-4.51-4.58-5.19-9-2.56-6.75,4-13.64,7.77-20.38,11.77a20.39,20.39,0,0,1-10.66,2.94c-6.48,0-13,0-19.43,0a24.15,24.15,0,0,0-22.09,34.28c.5,1.13,1.23,2.2,1,3.53a21.3,21.3,0,0,1-6.61.86c-13.7,0-27.41-.12-41.12.05-3.22,0-4.25-.74-4.23-4.13.15-20.3,0-40.62,0-60.92,1.29-.69,2.69-.39,4-.39q93.29,0,186.55,0C286.56,111.43,288,111.13,289.25,111.81Z"/><path class="cls-2" d="M146.55,176c-5.21-8.39-5.69-17.12-1.07-25.77s12.08-13,21.88-13.09c6.34-.08,12.69-.12,19,0a20.4,20.4,0,0,0,11.33-3c6.71-4,13.51-7.9,20.31-11.79,4.76-2.73,7.3-2,10,2.9.43,5.93.05,11.88.2,17.81,0,1.21-.35,2.48.38,3.62,2.8,1.16,5.71,2.07,8.12,4,5.23,2.78,5.72,7.73,5.47,12.75-.38,7.57-7.19,14.26-13.68,13.83-1.07,5.93-.32,11.9-.45,17.85-.17,7.58-4,9.88-10.58,6.12s-13.36-7.74-20.06-11.58a23.09,23.09,0,0,0-4.36-2.12c-7.14-2.32-8.65-1.21-8.65,6.1,0,5.48.06,11,0,16.46-.09,5.89-3.16,8.53-9.77,8.54-6.95,0-10.11-2.54-10.2-8.5-.11-6.73-.08-13.46,0-20.2,0-2.06-.14-3.32-2.71-3.79C155.3,184.92,150.53,181,146.55,176Z"/><path class="cls-5" d="M228.52,177.24c9.44-3.47,13.34-8.54,12.87-16.65-.23-4-2.2-7.05-4.66-9.93,1.46-.92,3.08-.81,4.7-.81h47.7c0,10.72,0,21.44.11,32.16,0,2.24-.68,3-3,3q-27.3-.1-54.6,0c-2.21,0-3.26-.61-3.07-3C228.71,180.49,228.55,178.86,228.52,177.24Z"/><path class="cls-5" d="M228.61,146.64c-1.25-4.23-.32-8.56-.54-12.84-.16-2.86,0-5.73,0-8.59,1.26,4.75.3,9.58.55,14.37C228.71,141.93,228.61,144.29,228.61,146.64Z"/><path class="cls-6" d="M222.57,126.21V154.6c0,13.21-.07,26.42,0,39.63,0,3-.71,3.14-3.06,1.74-6.3-3.75-12.74-7.3-19-11.07-4.06-2.42-8.29-4-13.08-3.61-2.1.18-3.11-.26-3.08-2.76.14-11.09.11-22.18,0-33.27,0-2.12.64-2.95,2.77-2.74,5.34.5,9.94-1.46,14.42-4.17C208.25,134.31,215.08,130.52,222.57,126.21Z"/></svg>