<svg id="Layer_1" data-name="Layer 1" xmlns="http://www.w3.org/2000/svg" viewBox="0 0 340.88 408.57"><defs><style>.cls-1{fill:#2681fe;}.cls-2{fill:#6aa8fe;}.cls-3{fill:#f4a76c;}.cls-4{fill:#feba84;}</style></defs><path class="cls-1" d="M174.82,228.31a98.48,98.48,0,0,0,45.64-14.93c5-3.06,10-6,14.68-9.55,8.72-6.64,18.3-7.47,28.7-5.75,26.53,4.39,45,19.3,57.42,42.69,9.48,17.84,14.14,37,17.1,56.79,2.21,14.75,2.68,29.6,2.48,44.5C340.41,374.67,319,400.56,287,407c-2.82.56-5.82.22-8.47,1.6H167.61c-1.55-1.79-1.29-4-1.29-6.09q0-83.6,0-167.19c0-6.56,0-6.56,6.54-6.7A5,5,0,0,0,174.82,228.31Z"/><path class="cls-2" d="M174.82,228.31a2.41,2.41,0,0,1-.67.42c-6.51,1.14-6.51,1.14-6.51,8l0,171.84H63.05c-5.71-1.54-11.66-2-17.3-3.95C19.38,395.34,3.6,377,1,349.19a208.29,208.29,0,0,1,13.31-96.54c7.62-19.46,19.06-36.22,38.23-46.32C64.87,199.82,78,196.67,92,197.7c6.22.46,11,4.52,15.93,7.8,12.31,8.2,24.86,15.76,39.3,19.79C156.33,227.82,165.51,228.41,174.82,228.31Z"/><path class="cls-3" d="M167.65,0c30.2-.47,54.77,11.57,74.66,33.8,11.38,12.73,19.07,27.49,22.1,44.31,5.75,31.83-.82,60.55-22.62,85.15-14.52,16.4-32.27,27.3-53.88,31.61a54.73,54.73,0,0,1-13,1.42c-8.29,1.09-8.59.84-8.59-7.49q0-90.76,0-181.55C166.33,4.81,165.74,2.17,167.65,0Z"/><path class="cls-4" d="M167.65,0q0,96.2-.09,192.4c0,2.89.69,4.25,3.77,3.84a22.45,22.45,0,0,1,3.57.05c-6.33,1.87-12.71.27-18.92-.35a89.89,89.89,0,0,1-48-19.57c-20-16-32.94-36.2-37.18-61.91C63.23,68.44,88,26.33,128.23,8.08A90.07,90.07,0,0,1,167.65,0Z"/></svg>