<svg id="Layer_1" data-name="Layer 1" xmlns="http://www.w3.org/2000/svg" viewBox="0 0 383.13 382.77"><defs><style>.cls-1{fill:#b7dff4;}.cls-2{fill:#003480;}.cls-3{fill:#dff3fe;}.cls-4{fill:#ef3800;}.cls-5{fill:#fe641a;}.cls-6{fill:#0052c1;}.cls-7{fill:#37d642;}.cls-8{fill:#fcbe00;}</style></defs><path class="cls-1" d="M383.13,101.78V353.93c-.45,11.38-6.61,19.1-15.76,25.09-4.76,3.12-10.05,3.66-15.39,3.67q-78.92.1-157.83,0c-1,0-2,.26-2.88-.44-1.23-1.3-1.2-2.95-1.21-4.57q0-51.78,0-103.56c0-2.24.75-4.45.19-6.69a6,6,0,0,1,.94-4.41q9.45-22.35,19.07-44.65,10.91-25.41,21.8-50.83c.64-1.49,1.27-3,1.84-4.5,2.42-6.41.52-12.15-4.71-14.25-5.62-2.25-11.07.32-13.8,6.62-4.6,10.63-9.13,21.3-13.7,31.94-2.41,5.61-4.67,11.28-7.31,16.79-.64,1.33-1.47,4.1-3.8,1.24-.69-1.67-.51-3.44-.51-5.17q0-46.11,0-92.21c0-2.22-.33-4.53,1.3-6.43,2-1.75,4.45-1.34,6.78-1.34q48.41,0,96.81,0,40.94,0,81.86,0C379,100.26,381.36,99.9,383.13,101.78Z"/><path class="cls-2" d="M383.13,101.78H196c-1.49,0-3,.07-4.48.1l-.55-.51c-1-1.41-.93-3.06-.93-4.67q0-45.4,0-90.8c0-1.74-.11-3.51,1-5C192.17-.28,193.62,0,195,0q78.81,0,157.63,0c13.57,0,22.39,7.71,28.59,19,1.58,2.87,1.05,6.33,2,9.42Z"/><path class="cls-3" d="M191.63,382.32q-79.62,0-159.25,0c-15,0-28.81-12.06-31.6-26.89A48.3,48.3,0,0,1,0,346.54q0-122.43.06-244.85c1.93-1.93,4.41-1.43,6.73-1.43q66.78,0,133.55,0,22.81,0,45.64,0c2,0,4-.13,5.62,1.43l-.08.2q0,49.63.05,99.28c0,1.86.08,3.73.13,5.59a2.45,2.45,0,0,1,.55,2.2C178.61,242.26,164,275.18,150,308.34a29.17,29.17,0,0,0-1.46,3.84,9.85,9.85,0,0,0,5.89,11.92,9.35,9.35,0,0,0,12.08-4.52c4.45-8.52,7.77-17.54,11.62-26.33,3.25-7.42,6.37-14.9,9.6-22.33.76-1.76,1.18-3.89,3.42-4.61.8,1.53.47,3.18.47,4.77Q191.62,326.7,191.63,382.32Z"/><path class="cls-4" d="M258.93,180.36a12,12,0,0,1,7.53,2.85q27.44,21.94,54.88,43.91c6.72,5.41,6.68,13.32-.09,18.76q-27.24,21.9-54.61,43.65c-5.6,4.45-12.25,4-16.34-1S247,276.57,252.63,272c13.79-11.09,27.57-22.2,41.5-33.12,2.72-2.14,2.37-3-.11-5-14-11-27.89-22.19-41.77-33.37-4.19-3.37-5.5-8-3.86-12.67A11.11,11.11,0,0,1,258.93,180.36Z"/><path class="cls-4" d="M191.52,208.68c.07-.65.13-1.29.2-1.93l17.05-39.16c1.93-4.44,3.77-8.91,5.76-13.32,3-6.64,9.2-9.38,15.19-6.78s8.37,9.15,5.57,15.7q-20.1,47.07-40.3,94.09c-.88,2.05-1.83,4.07-2.75,6.1-2.11-.49-2.11-2.28-2.12-3.83-.13-14.53-.15-29.06,0-43.59A25.89,25.89,0,0,1,191.52,208.68Z"/><path class="cls-5" d="M191.52,208.68q0,25.19.08,50.39c0,1.45-.43,3,.64,4.31l-1.14,2.93q-11.22,26-22.44,52.06c-2.55,5.88-7.58,8.8-13,7.66-7.17-1.51-10.83-8.84-7.81-16,4.91-11.69,10-23.32,15-35q13.59-31.71,27.19-63.41C190.46,210.62,191,209.66,191.52,208.68Z"/><path class="cls-6" d="M191.62,101.68c-3.48,0-7,.1-10.45.1H4.55c-1.49,0-3-.06-4.47-.09,0-22.67-.18-45.35,0-68C.25,15.84,14.94.91,32.74.85,85.44.67,138.15.79,190.85.79a4.55,4.55,0,0,1,.74.11Z"/><path class="cls-6" d="M292.45,68.11q-16.26,0-32.51,0c-7.06,0-12.27-4.84-12.23-11.29s5.23-11.15,12.38-11.15q32.69,0,65.38,0c4.37,0,8,1.51,10.32,5.46,2.53,4.24,2.21,8.33-.48,12.26-2.27,3.33-5.64,4.71-9.61,4.72Q309.08,68.13,292.45,68.11Z"/><path class="cls-5" d="M135.48,281.4c-.25,4.24-2,7.72-6.08,9.83a10.63,10.63,0,0,1-12-1c-3.8-2.82-7.42-5.87-11.12-8.83q-21.89-17.52-43.78-35c-7.58-6.08-7.65-13.65-.18-19.65q27-21.63,54-43.2c7.21-5.74,16.56-3,18.7,5.38,1.32,5.22-.9,9.16-4.93,12.37q-20.32,16.19-40.6,32.42c-3.47,2.78-3.47,2.78.11,5.64q20.3,16.22,40.6,32.41A12.62,12.62,0,0,1,135.48,281.4Z"/><path class="cls-7" d="M56.8,68.1a11.22,11.22,0,1,1,11.32-11A11.33,11.33,0,0,1,56.8,68.1Z"/><path class="cls-8" d="M101.75,68.11A11.22,11.22,0,1,1,113,57,11.38,11.38,0,0,1,101.75,68.11Z"/><path class="cls-4" d="M146.79,45.67a11.22,11.22,0,1,1-11.32,11A11.36,11.36,0,0,1,146.79,45.67Z"/></svg>