<svg id="Layer_1" data-name="Layer 1" xmlns="http://www.w3.org/2000/svg" viewBox="0 0 491.86 88.08"><defs><style>.cls-1,.cls-3{fill:#fff;}.cls-2{fill:#00f4ba;}.cls-3{font-size:20.67px;font-family:Raleway-Medium, Raleway;font-weight:500;}</style></defs><path class="cls-1" d="M30.77,57.68a24.49,24.49,0,0,1-10.9-2.4,26.77,26.77,0,0,1-8.42-6.35A28.71,28.71,0,0,1,6,39.86,29.6,29.6,0,0,1,4.11,29.43a28.59,28.59,0,0,1,2-10.67,29.41,29.41,0,0,1,5.63-9A27.09,27.09,0,0,1,20.28,3.5,24.76,24.76,0,0,1,30.94,1.19,23.61,23.61,0,0,1,41.8,3.66a28,28,0,0,1,8.39,6.47,29.54,29.54,0,0,1,5.43,9.06,29.1,29.1,0,0,1,1.92,10.32,28.44,28.44,0,0,1-2,10.67,29.13,29.13,0,0,1-5.59,9,26.85,26.85,0,0,1-8.46,6.2,24.88,24.88,0,0,1-10.68,2.32M11.37,29.43a24.29,24.29,0,0,0,1.4,8.2,22.41,22.41,0,0,0,4,7,19.1,19.1,0,0,0,6.15,4.87,17.6,17.6,0,0,0,8,1.8A17,17,0,0,0,39,49.4a19.73,19.73,0,0,0,6.11-5,22,22,0,0,0,3.83-7,24.6,24.6,0,0,0-.08-16.13,21.58,21.58,0,0,0-4-7,19.91,19.91,0,0,0-6.15-4.82,17.17,17.17,0,0,0-7.87-1.81,17.21,17.21,0,0,0-8.14,1.89,19.49,19.49,0,0,0-6.11,4.94,22.33,22.33,0,0,0-3.87,7,23.9,23.9,0,0,0-1.37,8" transform="translate(0)"/><path class="cls-1" d="M102.09,57.28h-7V34.37c0-4.39-.68-7.59-2-9.57a7,7,0,0,0-6.18-3,11.93,11.93,0,0,0-4.31.82,17,17,0,0,0-4.08,2.24,15.35,15.35,0,0,0-3.35,3.38,14.3,14.3,0,0,0-2.16,4.31V57.29h-7v-41H72.3v8.79a18.17,18.17,0,0,1,7.15-6.91,20.63,20.63,0,0,1,10.18-2.59,12.41,12.41,0,0,1,6,1.3,10,10,0,0,1,3.84,3.61,15.84,15.84,0,0,1,2,5.45,36.4,36.4,0,0,1,.6,6.83Z" transform="translate(0)"/><path class="cls-1" d="M131.31,58.07a21.42,21.42,0,0,1-8.62-1.69A20.23,20.23,0,0,1,116,51.79,21,21,0,0,1,111.63,45a22.36,22.36,0,0,1,0-16.36A20.56,20.56,0,0,1,122.77,17.3a21.47,21.47,0,0,1,8.63-1.69A20.84,20.84,0,0,1,140,17.34,19.94,19.94,0,0,1,150.76,28.6a21.52,21.52,0,0,1,1.48,7.88c0,.58,0,1.1,0,1.57a9.39,9.39,0,0,1-.12,1.1H117.5a15.61,15.61,0,0,0,1.44,5.57,14.22,14.22,0,0,0,7.46,7.14,13.18,13.18,0,0,0,5.15,1,13.9,13.9,0,0,0,3.75-.51A16.71,16.71,0,0,0,138.73,51a12.17,12.17,0,0,0,2.84-2.12,8.87,8.87,0,0,0,1.88-2.82l6.07,1.65a15.15,15.15,0,0,1-2.84,4.16,18.81,18.81,0,0,1-4.15,3.26,21.68,21.68,0,0,1-5.23,2.16,22.78,22.78,0,0,1-6,.78m14.3-24a14.68,14.68,0,0,0-1.48-5.38,14.45,14.45,0,0,0-3.11-4.2,14.07,14.07,0,0,0-4.35-2.71,14.66,14.66,0,0,0-10.54,0,13.36,13.36,0,0,0-4.35,2.75,13.78,13.78,0,0,0-3,4.19,15.31,15.31,0,0,0-1.4,5.34h28.26Z" transform="translate(0)"/><path class="cls-1" d="M214.68,13.26a12,12,0,0,0-2.55-2.12,23.17,23.17,0,0,0-3.59-1.84A25.48,25.48,0,0,0,204.19,8a23.26,23.26,0,0,0-4.92-.51q-6.63,0-9.7,2.43a8,8,0,0,0-3.07,6.67,7.31,7.31,0,0,0,.88,3.77,7.19,7.19,0,0,0,2.75,2.55,20.94,20.94,0,0,0,4.67,1.84q2.79.78,6.63,1.65a70.5,70.5,0,0,1,7.95,2.16,23.4,23.4,0,0,1,6.07,3,12.06,12.06,0,0,1,3.83,4.39,13.92,13.92,0,0,1,1.32,6.36,13.73,13.73,0,0,1-5.95,11.82,19,19,0,0,1-6.51,2.82,34.88,34.88,0,0,1-8.14.9,38.39,38.39,0,0,1-12.42-2A34.83,34.83,0,0,1,176.92,50l3.43-6a19.17,19.17,0,0,0,3.31,2.67,27.49,27.49,0,0,0,4.63,2.4,33.83,33.83,0,0,0,5.59,1.72,28.42,28.42,0,0,0,6.27.67c4,0,7.19-.7,9.42-2.12A7,7,0,0,0,212.93,43a6.93,6.93,0,0,0-1.08-4,9.16,9.16,0,0,0-3.16-2.79,24,24,0,0,0-5.15-2.08c-2-.6-4.38-1.22-7-1.84a69.06,69.06,0,0,1-7.59-2.2,21.06,21.06,0,0,1-5.47-2.83,10.8,10.8,0,0,1-3.32-4,13.15,13.15,0,0,1-1.12-5.65,15.71,15.71,0,0,1,1.52-7.06,14.83,14.83,0,0,1,4.23-5.18,18.65,18.65,0,0,1,6.47-3.18,30.07,30.07,0,0,1,8.14-1.06A29.58,29.58,0,0,1,209.8,2.92,29.13,29.13,0,0,1,218,7.55Z" transform="translate(0)"/><path class="cls-1" d="M247.26,58.07A20.47,20.47,0,0,1,227.78,45a21.82,21.82,0,0,1,4.35-23,20.33,20.33,0,0,1,6.63-4.63,20.67,20.67,0,0,1,8.5-1.73,21,21,0,0,1,8.55,1.73A20.5,20.5,0,0,1,262.47,22a21.22,21.22,0,0,1,4.31,6.75,21.47,21.47,0,0,1,1.56,8.16A21.81,21.81,0,0,1,266.82,45a20.56,20.56,0,0,1-4.31,6.75,20.83,20.83,0,0,1-15.25,6.36M233.45,37a16.31,16.31,0,0,0,1.07,6,15.27,15.27,0,0,0,3,4.79,13.79,13.79,0,0,0,4.39,3.21,12.9,12.9,0,0,0,10.78,0,13.87,13.87,0,0,0,4.43-3.26,15.16,15.16,0,0,0,3-4.86,16.47,16.47,0,0,0,1.07-6,16.29,16.29,0,0,0-1.07-5.93,15.32,15.32,0,0,0-3-4.87,14,14,0,0,0-4.43-3.25,12.48,12.48,0,0,0-5.39-1.18,12.1,12.1,0,0,0-5.39,1.22,14.06,14.06,0,0,0-4.39,3.3,15.54,15.54,0,0,0-3,4.87,16.65,16.65,0,0,0-1.07,6" transform="translate(0)"/><path class="cls-1" d="M276.81,0h7V46.69a4.92,4.92,0,0,0,1.24,3.57,4.58,4.58,0,0,0,3.47,1.3,9.64,9.64,0,0,0,2.07-.27,17.31,17.31,0,0,0,2.24-.67L294,56.2a23.9,23.9,0,0,1-4.15,1.18,22.62,22.62,0,0,1-4.23.47,8.85,8.85,0,0,1-6.43-2.28,8.37,8.37,0,0,1-2.36-6.35Z" transform="translate(0)"/><path class="cls-1" d="M311.86,58.07q-6.54,0-9.9-4.32t-3.35-12.87V16.32h7V39.55q0,12.56,8.86,12.56a13.74,13.74,0,0,0,8.11-2.71A16,16,0,0,0,328.24,42V16.32h7V48.81c0,1.62.75,2.46,2.24,2.51v6c-.59.11-1.11.18-1.56.23a11.33,11.33,0,0,1-1.24.08A5.64,5.64,0,0,1,331,56.45a4.25,4.25,0,0,1-1.52-3l-.24-4.94a19,19,0,0,1-7.35,7.1,20.43,20.43,0,0,1-10,2.48" transform="translate(0)"/><path class="cls-1" d="M368.64,55.24q-.64.32-1.68.75c-.69.29-1.48.58-2.35.86a20.1,20.1,0,0,1-2.87.7,19,19,0,0,1-3.24.28,10.73,10.73,0,0,1-6.62-2.08q-2.81-2.07-2.8-6.48V21.74h-5.67V16.32h5.67V2.67h7V16.32h9.34v5.42h-9.34V47.17a4.25,4.25,0,0,0,1.52,3.3,5.18,5.18,0,0,0,3.2,1,10.26,10.26,0,0,0,3.79-.67A17.24,17.24,0,0,0,367,49.76Z" transform="translate(0)"/><rect class="cls-1" x="374.71" y="16.32" width="7.02" height="40.96"/><path class="cls-1" d="M411.12,58.07A20.47,20.47,0,0,1,391.64,45,21.82,21.82,0,0,1,396,22a20.33,20.33,0,0,1,6.63-4.63,20.67,20.67,0,0,1,8.5-1.73,21,21,0,0,1,8.55,1.73A20.55,20.55,0,0,1,426.34,22a21.63,21.63,0,0,1,5.87,14.91A21.81,21.81,0,0,1,430.69,45a20.56,20.56,0,0,1-4.31,6.75,20.83,20.83,0,0,1-15.26,6.36M397.31,37a16.31,16.31,0,0,0,1.07,6,15.27,15.27,0,0,0,3,4.79,13.9,13.9,0,0,0,4.39,3.21,12.9,12.9,0,0,0,10.78,0,13.87,13.87,0,0,0,4.43-3.26,15.16,15.16,0,0,0,3-4.86,16.47,16.47,0,0,0,1.07-6,16.29,16.29,0,0,0-1.07-5.93,15.32,15.32,0,0,0-3-4.87,14,14,0,0,0-4.43-3.25,12.48,12.48,0,0,0-5.39-1.18,12.1,12.1,0,0,0-5.39,1.22,14.18,14.18,0,0,0-4.39,3.3,15.54,15.54,0,0,0-3,4.87,16.65,16.65,0,0,0-1.07,6" transform="translate(0)"/><path class="cls-1" d="M476.69,57.28h-7V34.37c0-4.39-.68-7.59-2-9.57a7,7,0,0,0-6.18-3,11.93,11.93,0,0,0-4.31.82,17,17,0,0,0-4.08,2.24,15.35,15.35,0,0,0-3.35,3.38,14.3,14.3,0,0,0-2.16,4.31V57.29h-7v-41h6.39v8.79a18.17,18.17,0,0,1,7.15-6.91,20.63,20.63,0,0,1,10.18-2.59,12.41,12.41,0,0,1,6,1.3,10,10,0,0,1,3.84,3.61,15.84,15.84,0,0,1,2,5.45,36.4,36.4,0,0,1,.6,6.83Z" transform="translate(0)"/><path class="cls-2" d="M10.63,2A10.79,10.79,0,0,0,0,12.93,10.8,10.8,0,0,0,11.13,23.37,10.78,10.78,0,0,0,21.76,12.43,10.79,10.79,0,0,0,10.88,2h-.25" transform="translate(0)"/><path class="cls-2" d="M373.53,7.29a4.7,4.7,0,0,0,9.4,0,4.7,4.7,0,0,0-9.4,0" transform="translate(0)"/><path class="cls-2" d="M485.62,45.68a6,6,0,1,0,.14,0h-.14" transform="translate(0)"/><text class="cls-3" transform="translate(0.19 83.43)">We are TheOneSolution for all your business needs</text><polygon class="cls-1" points="8.35 9.65 6 9.65 6 16.71 5.13 16.71 5.13 9.65 2.78 9.65 2.78 8.75 8.35 8.75 8.35 9.65"/><path class="cls-1" d="M13.54,16.71h-.85V13.44a2.63,2.63,0,0,0-.27-1.35.87.87,0,0,0-.79-.44,1.11,1.11,0,0,0-.5.12,1.78,1.78,0,0,0-.47.32,2.3,2.3,0,0,0-.38.48,2.46,2.46,0,0,0-.26.62v3.53H9.19V8.53H10v3.58a2.46,2.46,0,0,1,.81-1A1.89,1.89,0,0,1,12,10.75a1.46,1.46,0,0,1,.75.19,1.41,1.41,0,0,1,.49.51,2.75,2.75,0,0,1,.27.78,6,6,0,0,1,.08,1v3.51Z" transform="translate(0)"/><path class="cls-1" d="M17.06,16.82a2.27,2.27,0,0,1-1-.24,2.46,2.46,0,0,1-.81-.66,3.13,3.13,0,0,1-.53-1,3.77,3.77,0,0,1-.19-1.17,3.4,3.4,0,0,1,.19-1.16,3,3,0,0,1,.53-1A2.7,2.7,0,0,1,16,11a2.27,2.27,0,0,1,1-.24,2.2,2.2,0,0,1,1,.24,2.51,2.51,0,0,1,.79.66,2.78,2.78,0,0,1,.5.95,3.56,3.56,0,0,1,.18,1.13V14c0,.07,0,.12,0,.16H15.39a2.84,2.84,0,0,0,.17.8,2.22,2.22,0,0,0,.37.62,1.58,1.58,0,0,0,.53.4,1.32,1.32,0,0,0,.62.15,1.41,1.41,0,0,0,.45-.07,1.56,1.56,0,0,0,.41-.2,1.38,1.38,0,0,0,.34-.3,1.44,1.44,0,0,0,.23-.4l.73.24a2.16,2.16,0,0,1-.34.59,2,2,0,0,1-.5.46,2.64,2.64,0,0,1-.63.31,2.77,2.77,0,0,1-.71.1m1.72-3.43a2.41,2.41,0,0,0-.18-.77,1.82,1.82,0,0,0-.89-1,1.52,1.52,0,0,0-.63-.14,1.49,1.49,0,0,0-.63.14,1.82,1.82,0,0,0-.53.39,2,2,0,0,0-.36.6,2.64,2.64,0,0,0-.17.76h3.39Z" transform="translate(0)"/></svg>