<svg id="Layer_1" data-name="Layer 1" xmlns="http://www.w3.org/2000/svg" xmlns:xlink="http://www.w3.org/1999/xlink" viewBox="0 0 193.15 186.7"><defs><style>.cls-1{fill:none;}.cls-2{clip-path:url(#clip-path);}.cls-3{fill:url(#linear-gradient);}.cls-4{clip-path:url(#clip-path-2);}.cls-5{fill:url(#linear-gradient-2);}.cls-6{clip-path:url(#clip-path-3);}.cls-7{fill:url(#linear-gradient-3);}</style><clipPath id="clip-path"><path class="cls-1" d="M147.28,38.85c-1.44,0-3.35,0-3.35,0H119.32l-9,8.44a36.64,36.64,0,0,0-10.22,38.32h0v0c.2.61.41,1.21.64,1.8l-.12,0A31,31,0,0,0,106.37,98h0c.49.28,1,.58,1.43.89a29,29,0,0,1,6,5.33s0,0,0,0a28.92,28.92,0,0,1-36.17,43.95L75,155.51a36.64,36.64,0,0,0,53.38-32.39,34.8,34.8,0,0,0-2.4-13.27c-3.53-8.73-11.27-14.73-13-16.77a28.92,28.92,0,0,1,11.89-45.82h15.51a8.45,8.45,0,0,0,8.45-8.45,12.49,12.49,0,0,1-1.54,0"/></clipPath><linearGradient id="linear-gradient" x1="-441.45" y1="635.55" x2="-439.85" y2="635.55" gradientTransform="matrix(-92.21, 0, 0, 92.21, -40512.65, -58507.3)" gradientUnits="userSpaceOnUse"><stop offset="0" stop-color="#1c75bc"/><stop offset="0.39" stop-color="#1e74bb"/><stop offset="0.53" stop-color="#2571b6"/><stop offset="0.63" stop-color="#306cad"/><stop offset="0.71" stop-color="#4165a1"/><stop offset="0.78" stop-color="#575c91"/><stop offset="0.84" stop-color="#73507d"/><stop offset="0.89" stop-color="#934265"/><stop offset="0.94" stop-color="#b9324a"/><stop offset="0.99" stop-color="#e2212c"/><stop offset="1" stop-color="#ed1c24"/></linearGradient><clipPath id="clip-path-2"><path class="cls-1" d="M67.33,95.64,55.45,109.39v18.44c.11.81.24,1.6.4,2.38A36.67,36.67,0,0,0,75,155.51l2.64-7.34a28.92,28.92,0,0,1-13.87-18,28.59,28.59,0,0,1-.93-7.28A28.88,28.88,0,0,1,91.75,94a29.44,29.44,0,0,1,5.18.46,28.76,28.76,0,0,1,9.44,3.5,31,31,0,0,1-5.71-10.58l-1.09-.26a36.76,36.76,0,0,0-32.24,8.5"/></clipPath><linearGradient id="linear-gradient-2" x1="-440.57" y1="629.81" x2="-438.98" y2="629.81" gradientTransform="matrix(31.91, 0, 0, -31.91, 14113.08, 20216.61)" gradientUnits="userSpaceOnUse"><stop offset="0" stop-color="#ed1c24"/><stop offset="0.36" stop-color="#a53b58"/><stop offset="1" stop-color="#1c75bc"/></linearGradient><clipPath id="clip-path-3"><path class="cls-1" d="M63.9,99.61h0l.08-.09Zm.08-.09,3-3.45c-.95,1.1-2.06,2.36-3,3.45m3-3.45c.12-.15.25-.29.37-.43ZM35.23,38.82a4.22,4.22,0,1,0,0,8.44H51.91a3.54,3.54,0,0,1,3.54,3.54v58.59l8.45-9.78V50.8a3.55,3.55,0,0,1,3.55-3.54h42.91l9-8.44H35.23Z"/></clipPath><linearGradient id="linear-gradient-3" x1="-443.92" y1="631.92" x2="-442.33" y2="631.92" gradientTransform="matrix(52.59, 0, 0, -52.59, 23380.16, 33308.62)" gradientUnits="userSpaceOnUse"><stop offset="0" stop-color="#ed1c24"/><stop offset="0.08" stop-color="#ed1e24"/><stop offset="0.11" stop-color="#ee2524"/><stop offset="0.14" stop-color="#ee3124"/><stop offset="0.15" stop-color="#ef4125"/><stop offset="0.17" stop-color="#f05725"/><stop offset="0.18" stop-color="#f27326"/><stop offset="0.19" stop-color="#f49327"/><stop offset="0.2" stop-color="#f6b728"/><stop offset="0.21" stop-color="#f7c828"/><stop offset="0.5" stop-color="#f5c729"/><stop offset="0.61" stop-color="#eec52e"/><stop offset="0.69" stop-color="#e2c036"/><stop offset="0.76" stop-color="#d1ba42"/><stop offset="0.81" stop-color="#bbb151"/><stop offset="0.86" stop-color="#9fa763"/><stop offset="0.91" stop-color="#7f9a79"/><stop offset="0.95" stop-color="#598c93"/><stop offset="0.99" stop-color="#2f7caf"/><stop offset="1" stop-color="#1c75bc"/></linearGradient></defs><g class="cls-2"><rect class="cls-3" x="41.78" y="41.18" width="140.26" height="116.04" transform="translate(-23.81 162.01) rotate(-66.39)"/></g><g class="cls-4"><rect class="cls-5" x="55.45" y="86.31" width="50.92" height="69.2"/></g><g class="cls-6"><rect class="cls-7" x="22.27" y="18.1" width="105.81" height="111.99" transform="translate(-26.94 100.83) rotate(-59.26)"/></g></svg>